<svg xmlns="http://www.w3.org/2000/svg" xmlns:xlink="http://www.w3.org/1999/xlink" version="1.1" width="1000" height="1000" viewBox="0 0 1000 1000" xml:space="preserve">
<desc>Created with Fabric.js 3.5.0</desc>
<defs>
</defs>
<rect x="0" y="0" width="100%" height="100%" fill="#ffffff"/>
<g transform="matrix(1 0 0 1 500 455.7056)" id="297754">
<g style="">
		<g transform="matrix(1.6445 0 0 1.6445 -153.0216 49.8016)" id="Layer_1">
<path style="stroke: none; stroke-width: 1; stroke-dasharray: none; stroke-linecap: butt; stroke-dashoffset: 0; stroke-linejoin: miter; stroke-miterlimit: 4; is-custom-font: none; font-file-url: none; fill: rgb(83,27,7); fill-rule: nonzero; opacity: 1;" transform=" translate(-183.3529, -106)" d="M 285.4 68 l 26.3 -1.7 c 0.6 4.3 1.7 7.5 3.5 9.8 c 2.9 3.6 6.9 5.4 12.2 5.4 c 3.9 0 7 -0.9 9.1 -2.8 c 2 -1.5 3.2 -3.9 3.2 -6.4 c 0 -2.4 -1.1 -4.7 -3 -6.2 c -2 -1.8 -6.7 -3.6 -14.1 -5.2 c -12.1 -2.7 -20.8 -6.3 -25.9 -10.9 c -5.1 -4.3 -8 -10.6 -7.8 -17.3 c 0 -4.6 1.4 -9.2 4 -13 c 3 -4.3 7.1 -7.7 12 -9.6 c 5.3 -2.3 12.7 -3.5 22 -3.5 c 11.4 0 20.1 2.1 26.1 6.4 c 6 4.2 9.6 11 10.7 20.3 l -26 1.5 c -0.7 -4 -2.1 -6.9 -4.4 -8.8 s -5.3 -2.8 -9.2 -2.8 c -3.2 0 -5.6 0.7 -7.2 2 c -1.5 1.2 -2.5 3 -2.4 5 c 0 1.5 0.8 2.9 2 3.8 c 1.3 1.2 4.4 2.3 9.3 3.3 c 12.1 2.6 20.7 5.2 26 7.9 c 5.3 2.7 9.1 6 11.4 9.9 c 2.4 4 3.6 8.6 3.5 13.3 c 0 5.6 -1.6 11.2 -4.8 15.9 c -3.3 4.9 -7.9 8.7 -13.3 11 c -5.7 2.5 -12.9 3.8 -21.5 3.8 c -15.2 0 -25.7 -2.9 -31.6 -8.8 S 286.1 77 285.4 68 z M 6.3 97.6 V 8.2 h 46.1 c 8.5 0 15.1 0.7 19.6 2.2 c 4.4 1.4 8.3 4.3 10.9 8.2 c 2.9 4.3 4.3 9.3 4.2 14.5 c 0.3 8.8 -4.2 17.2 -11.9 21.6 c -3 1.7 -6.3 2.9 -9.7 3.5 c 2.5 0.7 5 1.9 7.2 3.3 c 1.7 1.4 3.1 3 4.4 4.7 c 1.5 1.7 2.8 3.6 3.9 5.6 l 13.4 25.9 H 63 L 48.2 70.2 c -1.9 -3.5 -3.5 -5.8 -5 -6.9 c -2 -1.4 -4.4 -2.1 -6.8 -2.1 H 34 v 36.3 H 6.3 z M 34 44.4 h 11.7 c 2.5 -0.2 4.9 -0.6 7.3 -1.2 c 1.8 -0.3 3.4 -1.3 4.5 -2.8 c 2.7 -3.6 2.3 -8.7 -1 -11.8 c -1.8 -1.5 -5.3 -2.3 -10.3 -2.3 H 34 v 18.1 z M 0 174.2 l 26.3 -1.7 c 0.6 4.3 1.7 7.5 3.5 9.8 c 2.8 3.6 6.9 5.5 12.2 5.5 c 3.9 0 7 -0.9 9.1 -2.8 c 2 -1.6 3.2 -3.9 3.2 -6.4 c 0 -2.4 -1.1 -4.7 -3 -6.2 c -2 -1.8 -6.7 -3.6 -14.2 -5.2 c -12.1 -2.7 -20.8 -6.3 -25.9 -10.9 c -5.1 -4.3 -8 -10.6 -7.8 -17.3 c 0 -4.6 1.4 -9.2 4 -13 c 3 -4.3 7.1 -7.7 12 -9.6 c 5.3 -2.3 12.7 -3.5 22 -3.5 c 11.4 0 20.1 2.1 26.1 6.4 s 9.5 11 10.6 20.3 l -26 1.5 c -0.7 -4 -2.1 -6.9 -4.4 -8.8 c -2.2 -1.9 -5.3 -2.8 -9.2 -2.7 c -3.2 0 -5.6 0.7 -7.2 2.1 c -1.6 1.2 -2.5 3 -2.4 5 c 0 1.5 0.8 2.9 2 3.8 c 1.3 1.2 4.4 2.3 9.3 3.3 c 12.1 2.6 20.7 5.2 26 7.9 c 5.3 2.7 9.1 6 11.4 9.9 c 2.4 4 3.6 8.6 3.6 13.2 c 0 5.6 -1.7 11.1 -4.8 15.8 c -3.3 4.9 -7.9 8.7 -13.3 11 c -5.7 2.5 -12.9 3.8 -21.5 3.8 c -15.2 0 -25.7 -2.9 -31.6 -8.8 c -5.9 -6 -9.2 -13.4 -10 -22.4 z" stroke-linecap="round"/>
</g>
		<g transform="matrix(1.6445 0 0 1.6445 -170.6211 137.1268)" id="Layer_1">
<path style="stroke: none; stroke-width: 1; stroke-dasharray: none; stroke-linecap: butt; stroke-dashoffset: 0; stroke-linejoin: miter; stroke-miterlimit: 4; is-custom-font: none; font-file-url: none; fill: rgb(83,27,7); fill-rule: nonzero; opacity: 1;" transform=" translate(-172.65, -159.1)" d="M 133 167.2 l 24.2 7.3 c -1.3 6.1 -4 11.9 -7.7 17 c -3.4 4.5 -7.9 8 -13 10.3 c -5.2 2.3 -11.8 3.5 -19.8 3.5 c -9.7 0 -17.7 -1.4 -23.8 -4.2 c -6.2 -2.8 -11.5 -7.8 -16 -14.9 c -4.5 -7.1 -6.7 -16.2 -6.7 -27.3 c 0 -14.8 3.9 -26.2 11.8 -34.1 s 19 -11.9 33.4 -11.9 c 11.3 0 20.1 2.3 26.6 6.8 c 6.4 4.6 11.2 11.6 14.4 21 l -24.4 5.4 c -0.6 -2.1 -1.5 -4.2 -2.7 -6 c -1.5 -2.1 -3.4 -3.7 -5.7 -4.9 c -2.3 -1.2 -4.9 -1.7 -7.5 -1.7 c -6.3 0 -11.1 2.5 -14.4 7.6 c -2.5 3.7 -3.8 9.6 -3.8 17.6 c 0 9.9 1.5 16.7 4.5 20.4 c 3 3.7 7.2 5.5 12.7 5.5 c 5.3 0 9.3 -1.5 12 -4.4 c 2.7 -3.1 4.7 -7.4 5.9 -13 z m 56.5 -52.8 h 27.6 v 31.3 h 30.2 v -31.3 h 27.8 v 89.4 h -27.8 v -36.2 h -30.2 v 36.2 h -27.6 v -89.4 z" stroke-linecap="round"/>
</g>
		<g transform="matrix(1.6445 0 0 1.6445 167.3278 137.0445)" id="Layer_1">
<path style="stroke: none; stroke-width: 1; stroke-dasharray: none; stroke-linecap: butt; stroke-dashoffset: 0; stroke-linejoin: miter; stroke-miterlimit: 4; is-custom-font: none; font-file-url: none; fill: rgb(83,27,7); fill-rule: nonzero; opacity: 1;" transform=" translate(-378.15, -159.05)" d="M 271.3 159.1 c 0 -14.6 4.1 -26 12.2 -34.1 c 8.1 -8.1 19.5 -12.2 34 -12.2 c 14.9 0 26.3 4 34.4 12 S 364 144 364 158.4 c 0 10.5 -1.8 19 -5.3 25.7 c -3.4 6.6 -8.7 12 -15.2 15.6 c -6.7 3.7 -15 5.6 -24.9 5.6 c -10.1 0 -18.4 -1.6 -25 -4.8 c -6.8 -3.4 -12.4 -8.7 -16.1 -15.2 c -4.1 -7 -6.2 -15.7 -6.2 -26.2 z m 27.6 0.1 c 0 9 1.7 15.5 5 19.5 c 3.3 3.9 7.9 5.9 13.7 5.9 c 5.9 0 10.5 -1.9 13.8 -5.8 s 4.9 -10.8 4.9 -20.8 c 0 -8.4 -1.7 -14.6 -5.1 -18.4 c -3.4 -3.9 -8 -5.8 -13.8 -5.8 c -5.1 -0.2 -10 2 -13.4 5.9 c -3.4 3.9 -5.1 10.4 -5.1 19.5 z m 93.4 -0.1 c 0 -14.6 4.1 -26 12.2 -34.1 c 8.1 -8.1 19.5 -12.2 34 -12.2 c 14.9 0 26.4 4 34.4 12 S 485 144 485 158.4 c 0 10.5 -1.8 19 -5.3 25.7 c -3.4 6.6 -8.7 12 -15.2 15.6 c -6.7 3.7 -15 5.6 -24.9 5.6 c -10.1 0 -18.4 -1.6 -25 -4.8 c -6.8 -3.4 -12.4 -8.7 -16.1 -15.2 c -4.1 -7 -6.2 -15.7 -6.2 -26.2 z m 27.6 0.1 c 0 9 1.7 15.5 5 19.5 c 3.3 3.9 7.9 5.9 13.7 5.9 c 5.9 0 10.5 -1.9 13.8 -5.8 c 3.3 -3.9 4.9 -10.8 4.9 -20.8 c 0 -8.4 -1.7 -14.6 -5.1 -18.4 c -3.4 -3.9 -8 -5.8 -13.8 -5.8 c -5.1 -0.2 -10.1 2 -13.4 5.9 c -3.4 3.9 -5.1 10.4 -5.1 19.5 z" stroke-linecap="round"/>
</g>
		<g transform="matrix(1.6445 0 0 1.6445 396.3287 137.1267)" id="Layer_1">
<path style="stroke: none; stroke-width: 1; stroke-dasharray: none; stroke-linecap: butt; stroke-dashoffset: 0; stroke-linejoin: miter; stroke-miterlimit: 4; is-custom-font: none; font-file-url: none; fill: rgb(83,27,7); fill-rule: nonzero; opacity: 1;" transform=" translate(-517.4, -159.1)" d="M 482.1 114.4 h 27.6 v 67.4 h 43.1 v 22 H 482 v -89.4 z" stroke-linecap="round"/>
</g>
		<g transform="matrix(1.3133 -0.9897 0.9897 1.3133 236.9802 -12.8989)" id="Layer_1">
<ellipse style="stroke: none; stroke-width: 1; stroke-dasharray: none; stroke-linecap: butt; stroke-dashoffset: 0; stroke-linejoin: miter; stroke-miterlimit: 4; is-custom-font: none; font-file-url: none; fill: rgb(255,255,255); fill-rule: nonzero; opacity: 1;" cx="0" cy="0" rx="63" ry="51.8"/>
</g>
		<g transform="matrix(1.3133 -0.9897 0.9897 1.3133 237.47 -12.092)" id="Layer_1" clip-path="url(#CLIPPATH_1)">
<clipPath id="CLIPPATH_1">
	<ellipse transform="matrix(1 0 0 1 0.0572 -0.5714)" id="SVGID_2_" cx="0" cy="0" rx="63" ry="51.8"/>
</clipPath>
<path style="stroke: none; stroke-width: 1; stroke-dasharray: none; stroke-linecap: butt; stroke-dashoffset: 0; stroke-linejoin: miter; stroke-miterlimit: 4; is-custom-font: none; font-file-url: none; fill: rgb(255,255,255); fill-rule: nonzero; opacity: 1;" transform=" translate(-420.8, -68.35)" d="M 330.9 -14.2 h 179.8 v 165.1 H 330.9 z" stroke-linecap="round"/>
</g>
		<g transform="matrix(1.3133 -0.9897 0.9897 1.3133 236.9802 -12.8989)" id="Layer_1-2" clip-path="url(#CLIPPATH_2)">
<clipPath id="CLIPPATH_2">
	<path transform="matrix(1 0 0 1 -0.0572 0.5714) translate(-420.8, -68.35)" id="SVGID_4_" d="M 330.9 -14.2 h 179.8 v 165.1 H 330.9 z" stroke-linecap="round"/>
</clipPath>
<ellipse style="stroke: none; stroke-width: 1; stroke-dasharray: none; stroke-linecap: butt; stroke-dashoffset: 0; stroke-linejoin: miter; stroke-miterlimit: 4; is-custom-font: none; font-file-url: none; fill: rgb(255,255,255); fill-rule: nonzero; opacity: 1;" cx="0" cy="0" rx="63" ry="51.8"/>
</g>
		<g transform="matrix(1.3134 -0.9897 0.9897 1.3134 237.4485 -11.2578)" id="Layer_1-2" clip-path="url(#CLIPPATH_3)">
<clipPath id="CLIPPATH_3">
	<ellipse transform="matrix(1 0 0 1 0.3731 -0.9683)" id="SVGID_6_" cx="0" cy="0" rx="63" ry="51.8"/>
</clipPath>
<path style="stroke: none; stroke-width: 1; stroke-dasharray: none; stroke-linecap: butt; stroke-dashoffset: 0; stroke-linejoin: miter; stroke-miterlimit: 4; is-custom-font: none; font-file-url: none; fill: rgb(255,255,255); fill-rule: nonzero; opacity: 1;" transform=" translate(-420.75, -68.85)" d="M 357.8 17 h 125.9 v 103.7 H 357.8 z" stroke-linecap="round"/>
</g>
		<g transform="matrix(1.3133 -0.9897 0.9897 1.3133 236.9802 -12.8989)" id="Layer_1-2" clip-path="url(#CLIPPATH_4)">
<clipPath id="CLIPPATH_4">
	<path transform="matrix(1 0 0 1 -0.3731 0.9683) translate(-420.75, -68.85)" id="SVGID_8_" d="M 357.8 17 h 125.9 v 103.7 H 357.8 z" stroke-linecap="round"/>
</clipPath>
<ellipse style="stroke: rgb(83,27,7); stroke-width: 4; stroke-dasharray: none; stroke-linecap: butt; stroke-dashoffset: 0; stroke-linejoin: miter; stroke-miterlimit: 10; is-custom-font: none; font-file-url: none; fill: rgb(255,255,255); fill-rule: nonzero; opacity: 1;" cx="0" cy="0" rx="63" ry="51.8"/>
</g>
		<g transform="matrix(1.3134 -0.9897 0.9897 1.3134 237.4485 -11.2578)" id="Layer_1-2" clip-path="url(#CLIPPATH_5)">
<clipPath id="CLIPPATH_5">
	<path transform="matrix(1 0 0 1 0 0) translate(-420.75, -68.85)" id="SVGID_8_" d="M 357.8 17 h 125.9 v 103.7 H 357.8 z" stroke-linecap="round"/>
</clipPath>
<path style="stroke: rgb(83,27,7); stroke-width: 4; stroke-dasharray: none; stroke-linecap: butt; stroke-dashoffset: 0; stroke-linejoin: miter; stroke-miterlimit: 10; is-custom-font: none; font-file-url: none; fill: none; fill-rule: nonzero; opacity: 1;" transform=" translate(-420.75, -68.85)" d="M 357.8 17 h 125.9 v 103.7 H 357.8 z" stroke-linecap="round"/>
</g>
		<g transform="matrix(1.3133 -0.9897 0.9897 1.3133 236.9802 -12.8989)" id="Layer_1-2" clip-path="url(#CLIPPATH_6)">
<clipPath id="CLIPPATH_6">
	<ellipse transform="matrix(1 0 0 1 0 0)" id="SVGID_6_" cx="0" cy="0" rx="63" ry="51.8"/>
</clipPath>
<ellipse style="stroke: rgb(83,27,7); stroke-width: 4; stroke-dasharray: none; stroke-linecap: butt; stroke-dashoffset: 0; stroke-linejoin: miter; stroke-miterlimit: 10; is-custom-font: none; font-file-url: none; fill: none; fill-rule: nonzero; opacity: 1;" cx="0" cy="0" rx="63" ry="51.8"/>
</g>
		<g transform="matrix(1.3134 -0.9897 0.9897 1.3134 237.4485 -11.2578)" id="Layer_1-2" clip-path="url(#CLIPPATH_7)">
<clipPath id="CLIPPATH_7">
	<ellipse transform="matrix(1 0 0 1 0.3731 -0.9683)" id="SVGID_6_" cx="0" cy="0" rx="63" ry="51.8"/>
</clipPath>
<path style="stroke: none; stroke-width: 1; stroke-dasharray: none; stroke-linecap: butt; stroke-dashoffset: 0; stroke-linejoin: miter; stroke-miterlimit: 4; is-custom-font: none; font-file-url: none; fill: rgb(255,255,255); fill-rule: nonzero; opacity: 1;" transform=" translate(-420.75, -68.85)" d="M 357.8 17 h 125.9 v 103.7 H 357.8 z" stroke-linecap="round"/>
</g>
		<g transform="matrix(1.3133 -0.9897 0.9897 1.3133 236.9802 -12.8989)" id="Layer_1-2" clip-path="url(#CLIPPATH_8)">
<clipPath id="CLIPPATH_8">
	<path transform="matrix(1 0 0 1 -0.3731 0.9683) translate(-420.75, -68.85)" id="SVGID_10_" d="M 357.8 17 h 125.9 v 103.7 H 357.8 z" stroke-linecap="round"/>
</clipPath>
<ellipse style="stroke: rgb(83,27,7); stroke-width: 4; stroke-dasharray: none; stroke-linecap: butt; stroke-dashoffset: 0; stroke-linejoin: miter; stroke-miterlimit: 10; is-custom-font: none; font-file-url: none; fill: rgb(255,255,255); fill-rule: nonzero; opacity: 1;" cx="0" cy="0" rx="63" ry="51.8"/>
</g>
		<g transform="matrix(1.3134 -0.9897 0.9897 1.3134 237.4485 -11.2578)" id="Layer_1-2" clip-path="url(#CLIPPATH_9)">
<clipPath id="CLIPPATH_9">
	<path transform="matrix(1 0 0 1 0 0) translate(-420.75, -68.85)" id="SVGID_10_" d="M 357.8 17 h 125.9 v 103.7 H 357.8 z" stroke-linecap="round"/>
</clipPath>
<path style="stroke: rgb(83,27,7); stroke-width: 4; stroke-dasharray: none; stroke-linecap: butt; stroke-dashoffset: 0; stroke-linejoin: miter; stroke-miterlimit: 10; is-custom-font: none; font-file-url: none; fill: none; fill-rule: nonzero; opacity: 1;" transform=" translate(-420.75, -68.85)" d="M 357.8 17 h 125.9 v 103.7 H 357.8 z" stroke-linecap="round"/>
</g>
		<g transform="matrix(1.3133 -0.9897 0.9897 1.3133 237.4698 -12.092)" id="Layer_1-2" clip-path="url(#CLIPPATH_10)">
<clipPath id="CLIPPATH_10">
	<ellipse transform="matrix(1 0 0 1 0.0572 -0.5714)" id="SVGID_6_" cx="0" cy="0" rx="63" ry="51.8"/>
</clipPath>
<path style="stroke: rgb(83,27,7); stroke-width: 4; stroke-dasharray: none; stroke-linecap: butt; stroke-dashoffset: 0; stroke-linejoin: miter; stroke-miterlimit: 10; is-custom-font: none; font-file-url: none; fill: none; fill-rule: nonzero; opacity: 1;" transform=" translate(-420.8, -68.35)" d="M 330.9 -14.2 h 179.8 v 165.1 H 330.9 z" stroke-linecap="round"/>
</g>
		<g transform="matrix(1.3133 -0.9897 0.9897 1.3133 236.9802 -12.8989)" id="Layer_1-2" clip-path="url(#CLIPPATH_11)">
<clipPath id="CLIPPATH_11">
	<path transform="matrix(1 0 0 1 -0.0572 0.5714) translate(-420.8, -68.35)" id="SVGID_4_" d="M 330.9 -14.2 h 179.8 v 165.1 H 330.9 z" stroke-linecap="round"/>
</clipPath>
<ellipse style="stroke: rgb(83,27,7); stroke-width: 4; stroke-dasharray: none; stroke-linecap: butt; stroke-dashoffset: 0; stroke-linejoin: miter; stroke-miterlimit: 10; is-custom-font: none; font-file-url: none; fill: none; fill-rule: nonzero; opacity: 1;" cx="0" cy="0" rx="63" ry="51.8"/>
</g>
		<g transform="matrix(1.6445 0 0 1.6445 240.7649 -13.1383)" id="Layer_1-2" clip-path="url(#CLIPPATH_12)">
<clipPath id="CLIPPATH_12">
	<path transform="matrix(0.7986 -0.6018 0.6018 0.7986 -2.0025 0.636) translate(-420.8, -68.35)" id="SVGID_4_" d="M 330.9 -14.2 h 179.8 v 165.1 H 330.9 z" stroke-linecap="round"/>
</clipPath>
<path style="stroke: none; stroke-width: 1; stroke-dasharray: none; stroke-linecap: butt; stroke-dashoffset: 0; stroke-linejoin: miter; stroke-miterlimit: 4; is-custom-font: none; font-file-url: none; fill: rgb(83,27,7); fill-rule: nonzero; opacity: 1;" transform=" translate(-422.8047, -67.7266)" d="M 392.4 61.3 l 10 -7 l 12.3 17.5 c 2.1 2.8 3.7 5.8 4.9 9.1 c 0.7 2.5 0.5 5.2 -0.5 7.6 c -1.3 3 -3.4 5.5 -6.2 7.3 c -3.3 2.3 -6.1 3.6 -8.5 4 c -2.3 0.4 -4.7 0 -6.9 -1 c -2.4 -1.2 -4.5 -2.9 -6.1 -5.1 l 8.6 -8 c 0.7 1.1 1.6 2.1 2.6 2.9 c 0.7 0.5 1.5 0.8 2.4 0.8 c 0.7 0 1.4 -0.3 1.9 -0.7 c 1 -0.6 1.7 -1.8 1.6 -3 c -0.3 -1.7 -1 -3.4 -2.1 -4.7 l -14 -19.7 z m 30 11.1 l 9.1 -7.2 c 1 1.2 2.3 2.1 3.7 2.6 c 2 0.6 4.1 0.2 5.8 -1.1 c 1.2 -0.8 2.2 -1.9 2.6 -3.3 c 0.6 -1.8 -0.4 -3.8 -2.2 -4.4 c -0.3 -0.1 -0.6 -0.2 -0.9 -0.2 c -1.2 -0.1 -3.3 0.4 -6.4 1.7 c -5.1 2.1 -9.1 2.9 -12.1 2.6 c -2.9 -0.3 -5.6 -1.8 -7.2 -4.3 c -1.2 -1.7 -1.8 -3.7 -1.9 -5.7 c 0 -2.3 0.6 -4.6 1.9 -6.5 c 1.9 -2.7 4.2 -5 7 -6.8 c 4.2 -2.9 7.9 -4.3 11.1 -4.3 c 3.2 0 6.2 1.5 9 4.6 l -9 7.1 c -1.8 -2.3 -5.2 -2.8 -7.5 -1 l -0.3 0.3 c -1 0.6 -1.7 1.5 -2.1 2.6 c -0.3 0.8 -0.1 1.7 0.4 2.4 c 0.4 0.5 1 0.9 1.7 0.9 c 0.8 0.1 2.2 -0.3 4.2 -1.2 c 5 -2.1 8.8 -3.3 11.4 -3.7 c 2.2 -0.4 4.5 -0.2 6.6 0.7 c 1.9 0.8 3.5 2.2 4.6 3.9 c 1.4 2 2.2 4.4 2.3 6.9 c 0.1 2.6 -0.6 5.1 -2 7.3 c -1.8 2.7 -4.1 5 -6.8 6.8 c -5.5 3.8 -10 5.4 -13.6 4.8 c -3.9 -0.6 -7.1 -2.6 -9.4 -5.5 z" stroke-linecap="round"/>
</g>
</g>
</g>
</svg>